<svg width="47" height="12" viewBox="0 0 47 12" fill="none" xmlns="http://www.w3.org/2000/svg">
<circle cx="26.9178" cy="5.92358" r="3.3125" stroke="white" stroke-opacity="0.15" stroke-width="3.68056"/>
<circle opacity="0.6" cx="26.9178" cy="5.92358" r="2.94444" stroke="white" stroke-width="0.736111"/>
<path d="M1.85696 9.97222H0.785889L3.88377 1.875H4.93837L8.03624 9.97222H6.96517L4.44402 3.15601H4.37811L1.85696 9.97222ZM2.25244 6.80925H6.5697V7.67906H2.25244V6.80925Z" fill="white"/>
<path d="M9.69641 9.97222H8.62534L11.7232 1.875H12.7778L15.8757 9.97222H14.8046L12.2835 3.15601H12.2176L9.69641 9.97222ZM10.0919 6.80925H14.4091V7.67906H10.0919V6.80925Z" fill="white"/>
<path d="M17.1898 9.97222V1.875H20.0405C20.6997 1.875 21.2407 1.98307 21.6636 2.19921C22.0866 2.41271 22.3996 2.7066 22.6029 3.08089C22.8061 3.45517 22.9077 3.88085 22.9077 4.35794C22.9077 4.83502 22.8061 5.25807 22.6029 5.62708C22.3996 5.9961 22.0879 6.28604 21.6677 6.4969C21.2475 6.70513 20.7106 6.80925 20.057 6.80925H17.7501V5.92361H20.024C20.4745 5.92361 20.837 5.86035 21.1116 5.73383C21.389 5.60731 21.5895 5.42808 21.7131 5.19613C21.8394 4.96154 21.9026 4.68214 21.9026 4.35794C21.9026 4.03373 21.8394 3.75038 21.7131 3.50789C21.5867 3.26539 21.3849 3.07825 21.1075 2.94646C20.8301 2.81203 20.4635 2.74482 20.0076 2.74482H18.2115V9.97222H17.1898ZM21.161 6.3348L23.2373 9.97222H22.0509L20.0076 6.3348H21.161Z" fill="white"/>
<path d="M38.0392 1.875V9.97222H37.0484L32.4409 3.61464H32.3584V9.97222H31.3345V1.875H32.3253L36.9493 8.2484H37.0319V1.875H38.0392Z" fill="white"/>
<path d="M46.7928 1.875V9.97222H45.802L41.1945 3.61464H41.1119V9.97222H40.088V1.875H41.0789L45.7029 8.2484H45.7854V1.875H46.7928Z" fill="white"/>
</svg>
